<svg width="35" height="45" viewBox="0 0 35 45" fill="none" xmlns="http://www.w3.org/2000/svg">
<path d="M0 41.037L6.97619 44.1647L8.17908 41.4379L1.20289 38.2302L0 41.037Z" fill="white"/>
<path d="M17.3145 8.81047L22.9844 3.1405L27.2372 7.39332L21.5666 13.0633L17.3145 8.81047Z" fill="white"/>
<path d="M32.6368 28.2062C32.3157 28.2062 31.9953 28.2868 31.6743 28.4473L27.5042 30.2916C24.2965 31.7349 20.6079 31.7349 17.4009 30.2916L16.599 29.9705C11.146 27.5648 4.81121 30.0512 2.48536 35.4235L1.60352 37.3484L8.57971 40.5561L9.14119 39.3532C10.023 37.4283 12.2683 36.4665 14.2731 37.3484C17.2397 38.6312 20.6079 38.6312 23.5751 37.3484L33.5992 32.7773C34.1607 32.5368 34.5616 32.1359 34.8021 31.5744C35.1224 30.8531 35.0425 29.9705 34.6416 29.3291C34.2406 28.6071 33.4387 28.2062 32.6368 28.2062Z" fill="white"/>
<path d="M10.1836 21.2307V22.1125H20.2076V21.2307C20.2076 20.9096 19.8866 20.5886 19.5662 20.5886H10.8257C10.4247 20.5886 10.1836 20.9096 10.1836 21.2307Z" fill="white"/>
<path d="M20.1269 15.9376C20.5279 16.3385 21.1693 16.3385 21.5702 15.9376C21.9712 15.5366 21.9712 14.8952 21.5702 14.4942L15.8762 8.80084C15.4752 8.39988 14.8338 8.39988 14.4335 8.80084C14.0326 9.20181 14.0326 9.84321 14.4335 10.2442L20.1269 15.9376Z" fill="white"/>
<path d="M23.3345 2.14501C23.7355 2.54597 27.9855 6.79672 28.6269 7.43812C28.7874 7.59865 29.0279 7.75848 29.3489 7.75848C29.9097 7.75848 30.3913 7.2776 30.3913 6.71612C30.3913 6.47568 30.3107 6.23524 30.0702 5.9948L24.3769 0.300722C23.9759 -0.100241 23.3345 -0.100241 22.9335 0.300722C22.5326 0.701684 22.5326 1.34309 22.9335 1.74405C23.0135 1.74405 23.3345 2.14501 23.3345 2.14501Z" fill="white"/>
<path d="M24.377 11.6875L31.9146 19.2259C32.3156 19.6269 32.9577 19.6269 33.3586 19.2259C33.7596 18.8249 33.7596 18.1828 33.3586 17.7819L25.8203 10.2442L24.377 11.6875Z" fill="white"/>
<path d="M6.17395 25.3202H24.2166C24.457 25.3202 24.6974 25.0798 24.6974 24.8394C24.6974 24.5989 24.457 24.3578 24.2166 24.3578H22.2118V23.7963C22.2118 23.476 21.8907 23.1549 21.5703 23.1549H8.82016C8.49912 23.1549 8.17807 23.476 8.17807 23.7963V24.3578H6.17326C5.93282 24.3578 5.69238 24.5982 5.69238 24.8394C5.69238 25.0805 5.85291 25.3202 6.17326 25.3202H6.17395Z" fill="white"/>
</svg>
